<svg xmlns="http://www.w3.org/2000/svg" style="display: none;">
  <!-- Facebook Icon -->
  <symbol id="icon-facebook" viewBox="0 0 512 512">
    <path d="M512 256C512 114.6 397.4 0 256 0S0 114.6 0 256C0 376 82.7 476.8 194.2 504.5V334.2H141.4V256h52.8V222.3c0-87.1 39.4-127.5 125-127.5c16.2 0 44.2 3.2 55.7 6.4V172c-6-.6-16.5-1-29.6-1c-42 0-58.2 15.9-58.2 57.2V256h83.6l-14.4 78.2H287V510.1C413.8 494.8 512 386.9 512 256z"/>
  </symbol>

  <!-- twitter Icon -->
  <symbol id="icon-custom" viewBox="0 0 448 512">
    <!-- <path d="M389.2 48h70.6L305.6 224.2 487 464H345L233.7 318.6 106.5 464H35.8L200.7 275.5 26.8 48H172.4L272.9 180.9 389.2 48zM364.4 421.8h39.1L151.1 88h-42L364.4 421.8z"/> -->
    <path d="M64 32C28.7 32 0 60.7 0 96V416c0 35.3 28.7 64 64 64H384c35.3 0 64-28.7 64-64V96c0-35.3-28.7-64-64-64H64zm297.1 84L257.3 234.6 379.4 396H283.8L209 298.1 123.3 396H75.8l111-126.9L69.7 116h98l67.7 89.5L313.6 116h47.5zM323.3 367.6L153.4 142.9H125.1L296.9 367.6h26.3z"/>
  </symbol>

  <!-- Instagram Icon -->
  <symbol id="icon-instagram" viewBox="0 0 448 512">
    <path d="M224.1 141c-63.6 0-114.9 51.3-114.9 114.9s51.3 114.9 114.9 114.9S339 319.5 339 255.9 287.7 141 224.1 141zm0 189.6c-41.1 0-74.7-33.5-74.7-74.7s33.5-74.7 74.7-74.7 74.7 33.5 74.7 74.7-33.6 74.7-74.7 74.7zm146.4-194.3c0 14.9-12 26.8-26.8 26.8-14.9 0-26.8-12-26.8-26.8s12-26.8 26.8-26.8 26.8 12 26.8 26.8zm76.1 27.2c-1.7-35.9-9.9-67.7-36.2-93.9-26.2-26.2-58-34.4-93.9-36.2-37-2.1-147.9-2.1-184.9 0-35.8 1.7-67.6 9.9-93.9 36.1s-34.4 58-36.2 93.9c-2.1 37-2.1 147.9 0 184.9 1.7 35.9 9.9 67.7 36.2 93.9s58 34.4 93.9 36.2c37 2.1 147.9 2.1 184.9 0 35.9-1.7 67.7-9.9 93.9-36.2 26.2-26.2 34.4-58 36.2-93.9 2.1-37 2.1-147.8 0-184.8zM398.8 388c-7.8 19.6-22.9 34.7-42.6 42.6-29.5 11.7-99.5 9-132.1 9s-102.7 2.6-132.1-9c-19.6-7.8-34.7-22.9-42.6-42.6-11.7-29.5-9-99.5-9-132.1s-2.6-102.7 9-132.1c7.8-19.6 22.9-34.7 42.6-42.6 29.5-11.7 99.5-9 132.1-9s102.7-2.6 132.1 9c19.6 7.8 34.7 22.9 42.6 42.6 11.7 29.5 9 99.5 9 132.1s2.7 102.7-9 132.1z"/>
  </symbol>

  <!-- LinkedIn Icon -->
  <symbol id="icon-linkedin" viewBox="0 0 448 512">
    <path d="M416 32H31.9C14.3 32 0 46.5 0 64.3v383.4C0 465.5 14.3 480 31.9 480H416c17.6 0 32-14.5 32-32.3V64.3c0-17.8-14.4-32.3-32-32.3zM135.4 416H69V202.2h66.5V416zm-33.2-243c-21.3 0-38.5-17.3-38.5-38.5S80.9 96 102.2 96c21.2 0 38.5 17.3 38.5 38.5 0 21.3-17.2 38.5-38.5 38.5zm282.1 243h-66.4V312c0-24.8-.5-56.7-34.5-56.7-34.6 0-39.9 27-39.9 54.9V416h-66.4V202.2h63.7v29.2h.9c8.9-16.8 30.6-34.5 62.9-34.5 67.2 0 79.7 44.3 79.7 101.9V416z"/>
  </symbol>

  <!-- UI Icon -->
  <symbol fill="none" viewBox="0 0 72 72" id="icon-ui">
    <mask id="path-1-outside-1_1210_2776" maskUnits="userSpaceOnUse" x="0" y="0" fill="#000">
      <rect fill="white" width="72" height="72"></rect>
      <path d="M59.1055 1C59.8452 1.40286 60.0808 2.01901 60.0772 2.85938C60.0498 8.41927 60.0626 13.9773 60.0626 19.5372C60.0626 19.7195 60.0717 19.9036 60.0534 20.0841C59.984 20.8297 59.4233 21.3638 58.7091 21.3711C57.9676 21.3784 57.3722 20.8279 57.3374 20.0458C57.3064 19.3185 57.3265 18.5875 57.3265 17.8583C57.3265 15.649 57.3265 13.4396 57.3265 11.1737H14.7219V14.9362H15.5347C25.469 14.9362 35.4014 14.9362 45.3356 14.9362C46.8005 14.9362 47.2114 15.3427 47.2114 16.7938C47.2114 23.0372 47.2114 29.2789 47.2114 35.5224C47.2114 36.9315 46.7804 37.369 45.3849 37.369C35.4507 37.369 25.5183 37.369 15.584 37.369C15.3137 37.369 15.0416 37.369 14.7219 37.369V68.2255H57.2936V63.6427H56.4078C46.5192 63.6427 36.6324 63.6427 26.7438 63.6427C25.153 63.6427 24.7913 63.2745 24.7913 61.6594C24.7913 55.4396 24.7913 49.2198 24.7913 43C24.7913 41.6602 25.2498 41.2081 26.6087 41.2081C36.5429 41.2081 46.4753 41.2081 56.4096 41.2081H57.3301C57.3301 40.9401 57.3301 40.6995 57.3301 40.4607C57.3301 37.8174 57.3265 35.1742 57.332 32.5328C57.332 31.7161 57.6808 31.2021 58.3347 31.0089C59.237 30.7409 60.0552 31.4227 60.0607 32.4799C60.0717 35.1232 60.0644 37.7664 60.0644 40.4078C60.0644 40.6521 60.0644 40.8964 60.0644 41.2099C60.7603 41.2099 61.3922 41.2099 62.0242 41.2099C64.3932 41.2099 66.7639 41.2354 69.1329 41.1953C69.9676 41.1807 70.5886 41.4286 71.0032 42.156V62.6638C70.6342 63.4367 70.0132 63.6682 69.1767 63.6591C66.4059 63.6245 63.6352 63.6464 60.8644 63.6464C60.6215 63.6464 60.3785 63.6464 60.0644 63.6464C60.0644 65.5312 60.0315 67.3432 60.079 69.1516C60.1009 69.9919 59.8416 70.6008 59.1073 71.0036H12.8936C12.1539 70.6008 11.9201 69.9865 11.9219 69.1461C11.9438 58.8284 11.9365 48.5107 11.9365 38.193V37.3708C8.78767 37.3708 5.73744 37.3727 2.68904 37.3708C1.47991 37.3708 1.00137 36.8841 1.00137 35.6628C0.999543 29.3081 0.999543 22.9534 1.00137 16.5987C1.00137 15.4247 1.48539 14.9435 2.66347 14.9417C5.21507 14.938 7.76484 14.9417 10.3164 14.9417C10.8352 14.9417 11.3521 14.9417 11.9365 14.9417V14.1396C11.9365 10.3807 11.9566 6.6237 11.9219 2.86484C11.9146 2.02448 12.1521 1.40833 12.8936 1.00729H59.1055V1ZM3.76484 34.5854H44.4242V17.707H3.76484V34.5854ZM27.5548 60.8573H68.2105V43.9789H27.5548V60.8573ZM46.4936 3.77266H14.7183V8.33359H46.4936V3.77266ZM57.2991 3.78359H49.3174V8.34818H57.2991V3.78359Z"></path>
    </mask>
    <path d="M59.1055 1C59.8452 1.40286 60.0808 2.01901 60.0772 2.85938C60.0498 8.41927 60.0626 13.9773 60.0626 19.5372C60.0626 19.7195 60.0717 19.9036 60.0534 20.0841C59.984 20.8297 59.4233 21.3638 58.7091 21.3711C57.9676 21.3784 57.3722 20.8279 57.3374 20.0458C57.3064 19.3185 57.3265 18.5875 57.3265 17.8583C57.3265 15.649 57.3265 13.4396 57.3265 11.1737H14.7219V14.9362H15.5347C25.469 14.9362 35.4014 14.9362 45.3356 14.9362C46.8005 14.9362 47.2114 15.3427 47.2114 16.7938C47.2114 23.0372 47.2114 29.2789 47.2114 35.5224C47.2114 36.9315 46.7804 37.369 45.3849 37.369C35.4507 37.369 25.5183 37.369 15.584 37.369C15.3137 37.369 15.0416 37.369 14.7219 37.369V68.2255H57.2936V63.6427H56.4078C46.5192 63.6427 36.6324 63.6427 26.7438 63.6427C25.153 63.6427 24.7913 63.2745 24.7913 61.6594C24.7913 55.4396 24.7913 49.2198 24.7913 43C24.7913 41.6602 25.2498 41.2081 26.6087 41.2081C36.5429 41.2081 46.4753 41.2081 56.4096 41.2081H57.3301C57.3301 40.9401 57.3301 40.6995 57.3301 40.4607C57.3301 37.8174 57.3265 35.1742 57.332 32.5328C57.332 31.7161 57.6808 31.2021 58.3347 31.0089C59.237 30.7409 60.0552 31.4227 60.0607 32.4799C60.0717 35.1232 60.0644 37.7664 60.0644 40.4078C60.0644 40.6521 60.0644 40.8964 60.0644 41.2099C60.7603 41.2099 61.3922 41.2099 62.0242 41.2099C64.3932 41.2099 66.7639 41.2354 69.1329 41.1953C69.9676 41.1807 70.5886 41.4286 71.0032 42.156V62.6638C70.6342 63.4367 70.0132 63.6682 69.1767 63.6591C66.4059 63.6245 63.6352 63.6464 60.8644 63.6464C60.6215 63.6464 60.3785 63.6464 60.0644 63.6464C60.0644 65.5312 60.0315 67.3432 60.079 69.1516C60.1009 69.9919 59.8416 70.6008 59.1073 71.0036H12.8936C12.1539 70.6008 11.9201 69.9865 11.9219 69.1461C11.9438 58.8284 11.9365 48.5107 11.9365 38.193V37.3708C8.78767 37.3708 5.73744 37.3727 2.68904 37.3708C1.47991 37.3708 1.00137 36.8841 1.00137 35.6628C0.999543 29.3081 0.999543 22.9534 1.00137 16.5987C1.00137 15.4247 1.48539 14.9435 2.66347 14.9417C5.21507 14.938 7.76484 14.9417 10.3164 14.9417C10.8352 14.9417 11.3521 14.9417 11.9365 14.9417V14.1396C11.9365 10.3807 11.9566 6.6237 11.9219 2.86484C11.9146 2.02448 12.1521 1.40833 12.8936 1.00729H59.1055V1ZM3.76484 34.5854H44.4242V17.707H3.76484V34.5854ZM27.5548 60.8573H68.2105V43.9789H27.5548V60.8573ZM46.4936 3.77266H14.7183V8.33359H46.4936V3.77266ZM57.2991 3.78359H49.3174V8.34818H57.2991V3.78359Z" fill="#FD6F00"></path>
  </symbol>
</svg>
